<mxfile host="app.diagrams.net" modified="2021-06-30T20:25:37.512Z" agent="5.0 (Windows NT 10.0; Win64; x64) AppleWebKit/537.36 (KHTML, like Gecko) Chrome/91.0.4472.124 Safari/537.36" etag="tmaY_X11eVShr9h05T2g" version="14.8.3" type="github">
  <diagram id="-JqbX3kNQ2UfR2CNkwkD" name="Page-1">
    <mxGraphModel dx="1102" dy="582" grid="1" gridSize="10" guides="1" tooltips="1" connect="1" arrows="1" fold="1" page="1" pageScale="1" pageWidth="827" pageHeight="1169" math="0" shadow="0">
      <root>
        <mxCell id="0" />
        <mxCell id="1" parent="0" />
        <mxCell id="1IotGhMMAF4tLHiHmhU0-3" value="" style="shape=parallelogram;perimeter=parallelogramPerimeter;whiteSpace=wrap;html=1;fixedSize=1;fillColor=#FFE6CC;gradientColor=none;" vertex="1" parent="1">
          <mxGeometry x="374" y="60" width="120" height="80" as="geometry" />
        </mxCell>
        <mxCell id="1IotGhMMAF4tLHiHmhU0-4" value="" style="rounded=0;whiteSpace=wrap;html=1;fillColor=#FFE6CC;gradientColor=none;" vertex="1" parent="1">
          <mxGeometry x="334" y="75" width="70" height="10" as="geometry" />
        </mxCell>
        <mxCell id="1IotGhMMAF4tLHiHmhU0-5" value="" style="rounded=0;whiteSpace=wrap;html=1;fillColor=#FFE6CC;gradientColor=none;" vertex="1" parent="1">
          <mxGeometry x="334" y="95" width="70" height="10" as="geometry" />
        </mxCell>
        <mxCell id="1IotGhMMAF4tLHiHmhU0-6" value="" style="rounded=0;whiteSpace=wrap;html=1;fillColor=#FFE6CC;gradientColor=none;" vertex="1" parent="1">
          <mxGeometry x="334" y="115" width="70" height="10" as="geometry" />
        </mxCell>
        <mxCell id="1IotGhMMAF4tLHiHmhU0-7" value="Restaurant.exe" style="text;html=1;strokeColor=none;fillColor=none;align=center;verticalAlign=middle;whiteSpace=wrap;rounded=0;" vertex="1" parent="1">
          <mxGeometry x="394" y="40" width="100" height="20" as="geometry" />
        </mxCell>
        <mxCell id="1IotGhMMAF4tLHiHmhU0-8" value="" style="whiteSpace=wrap;html=1;aspect=fixed;fillColor=#FFE6CC;gradientColor=none;" vertex="1" parent="1">
          <mxGeometry x="220" y="200" width="100" height="100" as="geometry" />
        </mxCell>
        <mxCell id="1IotGhMMAF4tLHiHmhU0-9" value="" style="ellipse;whiteSpace=wrap;html=1;fillColor=#FFE6CC;gradientColor=none;" vertex="1" parent="1">
          <mxGeometry x="170" y="210" width="90" height="10" as="geometry" />
        </mxCell>
        <mxCell id="1IotGhMMAF4tLHiHmhU0-10" value="" style="rounded=0;whiteSpace=wrap;html=1;fillColor=#FFE6CC;gradientColor=none;" vertex="1" parent="1">
          <mxGeometry x="170" y="245" width="90" height="10" as="geometry" />
        </mxCell>
        <mxCell id="1IotGhMMAF4tLHiHmhU0-11" value="" style="rounded=0;whiteSpace=wrap;html=1;fillColor=#FFE6CC;gradientColor=none;" vertex="1" parent="1">
          <mxGeometry x="170" y="280" width="90" height="10" as="geometry" />
        </mxCell>
        <mxCell id="1IotGhMMAF4tLHiHmhU0-12" value="App Screen" style="text;html=1;strokeColor=none;fillColor=none;align=center;verticalAlign=middle;whiteSpace=wrap;rounded=0;" vertex="1" parent="1">
          <mxGeometry x="220" y="180" width="100" height="20" as="geometry" />
        </mxCell>
        <mxCell id="1IotGhMMAF4tLHiHmhU0-13" value="" style="whiteSpace=wrap;html=1;aspect=fixed;gradientColor=none;fillColor=#808080;" vertex="1" parent="1">
          <mxGeometry x="90" y="360" width="100" height="100" as="geometry" />
        </mxCell>
        <mxCell id="1IotGhMMAF4tLHiHmhU0-14" value="" style="ellipse;whiteSpace=wrap;html=1;fillColor=#FFE6CC;gradientColor=none;" vertex="1" parent="1">
          <mxGeometry x="40" y="370" width="90" height="10" as="geometry" />
        </mxCell>
        <mxCell id="1IotGhMMAF4tLHiHmhU0-15" value="" style="rounded=0;whiteSpace=wrap;html=1;fillColor=#FFE6CC;gradientColor=none;" vertex="1" parent="1">
          <mxGeometry x="40" y="405" width="90" height="10" as="geometry" />
        </mxCell>
        <mxCell id="1IotGhMMAF4tLHiHmhU0-16" value="" style="rounded=0;whiteSpace=wrap;html=1;fillColor=#FFE6CC;gradientColor=none;" vertex="1" parent="1">
          <mxGeometry x="40" y="440" width="90" height="10" as="geometry" />
        </mxCell>
        <mxCell id="1IotGhMMAF4tLHiHmhU0-17" value="App Screen" style="text;html=1;strokeColor=none;fillColor=none;align=center;verticalAlign=middle;whiteSpace=wrap;rounded=0;" vertex="1" parent="1">
          <mxGeometry x="90" y="340" width="100" height="20" as="geometry" />
        </mxCell>
        <mxCell id="1IotGhMMAF4tLHiHmhU0-18" value="" style="whiteSpace=wrap;html=1;aspect=fixed;fillColor=#FFE6CC;gradientColor=none;" vertex="1" parent="1">
          <mxGeometry x="520" y="200" width="100" height="100" as="geometry" />
        </mxCell>
        <mxCell id="1IotGhMMAF4tLHiHmhU0-19" value="" style="ellipse;whiteSpace=wrap;html=1;fillColor=#FFE6CC;gradientColor=none;" vertex="1" parent="1">
          <mxGeometry x="470" y="210" width="90" height="10" as="geometry" />
        </mxCell>
        <mxCell id="1IotGhMMAF4tLHiHmhU0-20" value="" style="rounded=0;whiteSpace=wrap;html=1;fillColor=#FFE6CC;gradientColor=none;" vertex="1" parent="1">
          <mxGeometry x="470" y="245" width="90" height="10" as="geometry" />
        </mxCell>
        <mxCell id="1IotGhMMAF4tLHiHmhU0-21" value="" style="rounded=0;whiteSpace=wrap;html=1;fillColor=#FFE6CC;gradientColor=none;" vertex="1" parent="1">
          <mxGeometry x="470" y="280" width="90" height="10" as="geometry" />
        </mxCell>
        <mxCell id="1IotGhMMAF4tLHiHmhU0-22" value="Foods" style="text;html=1;strokeColor=none;fillColor=none;align=center;verticalAlign=middle;whiteSpace=wrap;rounded=0;" vertex="1" parent="1">
          <mxGeometry x="520" y="180" width="100" height="20" as="geometry" />
        </mxCell>
        <mxCell id="1IotGhMMAF4tLHiHmhU0-23" value="" style="whiteSpace=wrap;html=1;aspect=fixed;gradientColor=none;fillColor=#808080;" vertex="1" parent="1">
          <mxGeometry x="650" y="360" width="100" height="100" as="geometry" />
        </mxCell>
        <mxCell id="1IotGhMMAF4tLHiHmhU0-24" value="" style="ellipse;whiteSpace=wrap;html=1;fillColor=#FFE6CC;gradientColor=none;" vertex="1" parent="1">
          <mxGeometry x="600" y="370" width="90" height="10" as="geometry" />
        </mxCell>
        <mxCell id="1IotGhMMAF4tLHiHmhU0-25" value="" style="rounded=0;whiteSpace=wrap;html=1;fillColor=#FFE6CC;gradientColor=none;" vertex="1" parent="1">
          <mxGeometry x="600" y="405" width="90" height="10" as="geometry" />
        </mxCell>
        <mxCell id="1IotGhMMAF4tLHiHmhU0-26" value="" style="rounded=0;whiteSpace=wrap;html=1;fillColor=#FFE6CC;gradientColor=none;" vertex="1" parent="1">
          <mxGeometry x="600" y="440" width="90" height="10" as="geometry" />
        </mxCell>
        <mxCell id="1IotGhMMAF4tLHiHmhU0-27" value="" style="endArrow=classic;html=1;entryX=0;entryY=1;entryDx=0;entryDy=0;" edge="1" parent="1" target="1IotGhMMAF4tLHiHmhU0-8">
          <mxGeometry width="50" height="50" relative="1" as="geometry">
            <mxPoint x="190" y="360" as="sourcePoint" />
            <mxPoint x="240" y="310" as="targetPoint" />
          </mxGeometry>
        </mxCell>
        <mxCell id="1IotGhMMAF4tLHiHmhU0-28" value="" style="endArrow=classic;html=1;entryX=1;entryY=1;entryDx=0;entryDy=0;" edge="1" parent="1" target="1IotGhMMAF4tLHiHmhU0-18">
          <mxGeometry width="50" height="50" relative="1" as="geometry">
            <mxPoint x="650" y="360" as="sourcePoint" />
            <mxPoint x="700" y="310" as="targetPoint" />
          </mxGeometry>
        </mxCell>
        <mxCell id="1IotGhMMAF4tLHiHmhU0-29" value="" style="endArrow=classic;html=1;entryX=0;entryY=1;entryDx=0;entryDy=0;exitX=0.825;exitY=0.988;exitDx=0;exitDy=0;exitPerimeter=0;" edge="1" parent="1" source="1IotGhMMAF4tLHiHmhU0-3" target="1IotGhMMAF4tLHiHmhU0-22">
          <mxGeometry width="50" height="50" relative="1" as="geometry">
            <mxPoint x="470" y="140" as="sourcePoint" />
            <mxPoint x="520" y="90" as="targetPoint" />
          </mxGeometry>
        </mxCell>
        <mxCell id="1IotGhMMAF4tLHiHmhU0-30" value="" style="endArrow=classic;html=1;entryX=1;entryY=1;entryDx=0;entryDy=0;entryPerimeter=0;" edge="1" parent="1" target="1IotGhMMAF4tLHiHmhU0-12">
          <mxGeometry width="50" height="50" relative="1" as="geometry">
            <mxPoint x="374" y="140" as="sourcePoint" />
            <mxPoint x="424" y="90" as="targetPoint" />
          </mxGeometry>
        </mxCell>
        <mxCell id="1IotGhMMAF4tLHiHmhU0-32" value="Foods" style="text;html=1;strokeColor=none;fillColor=none;align=center;verticalAlign=middle;whiteSpace=wrap;rounded=0;" vertex="1" parent="1">
          <mxGeometry x="650" y="340" width="100" height="20" as="geometry" />
        </mxCell>
      </root>
    </mxGraphModel>
  </diagram>
</mxfile>
